{
	"nodes":[{
		"name":"Camera Morph Setup",
		"children":[1]
	},
	{
		"name":"Morph Camera",
		"translation":[679.008544921875,
		914.172119140625,
		905.86767578125],
		"rotation":[0.21271659433841706,
		-0.31148064136505129,
		-0.0717569962143898,
		-0.9233538508415222],
		"scale":[1.0,
		1.0,
		1.0],
		"camera":0
	},
	{
		"name":"Camera.5",
		"translation":[-261.1662902832031,
		1200.6966552734376,
		1028.219482421875],
		"rotation":[-0.2904750108718872,
		-0.11916165798902512,
		-0.03648391738533974,
		0.9487326741218567],
		"scale":[1.0,
		1.0,
		1.0],
		"camera":1
	},
	{
		"name":"Camera.4",
		"translation":[-261.1662902832031,
		1200.6966552734376,
		1028.219482421875],
		"rotation":[-0.2904750108718872,
		-0.11916165798902512,
		-0.03648391738533974,
		0.9487326741218567],
		"scale":[1.0,
		1.0,
		1.0],
		"camera":2
	},
	{
		"name":"Camera.3",
		"translation":[-700.1854858398438,
		958.9927368164063,
		552.6488647460938],
		"rotation":[-0.22364425659179688,
		-0.41421014070510867,
		-0.10575871914625168,
		0.8759157061576843],
		"scale":[1.0,
		1.0,
		1.0],
		"camera":3
	},
	{
		"name":"Camera.2",
		"translation":[-682.6321411132813,
		918.7149658203125,
		-707.572998046875],
		"rotation":[-0.09140889346599579,
		-0.8914686441421509,
		-0.20783019065856934,
		0.3920901119709015],
		"scale":[1.0,
		1.0,
		1.0],
		"camera":4
	},
	{
		"name":"Camera.1",
		"translation":[823.6870727539063,
		902.6424560546875,
		-716.35302734375],
		"rotation":[0.08803851902484894,
		-0.8936358690261841,
		-0.20094874501228333,
		-0.3915146291255951],
		"scale":[1.0,
		1.0,
		1.0],
		"camera":5
	},
	{
		"name":"Camera",
		"translation":[679.0081787109375,
		914.172119140625,
		905.86865234375],
		"rotation":[0.21271653473377229,
		-0.3114802837371826,
		-0.07175688445568085,
		-0.9233540296554565],
		"scale":[1.0,
		1.0,
		1.0],
		"camera":6
	},
	{
		"name":"Cloth NURBS",
		"children":[9]
	},
	{
		"name":"HyperNURBS",
		"children":[10]
	},
	{
		"name":"Cube",
		"translation":[0.0,
		354.07366943359377,
		5.423648834228516],
		"rotation":[0.0,
		0.0,
		0.0,
		-1.0],
		"scale":[1.0,
		1.0,
		1.0],
		"mesh":0
	}],
	"asset":{
		"version":"2.0",
		"generator":"Created using the official Cinema 4D glTF Exporter 1.000x284978"
	},
	"scenes":[{
		"nodes":[0,
		2,
		3,
		4,
		5,
		6,
		7,
		8]
	}],
	"materials":[{
		"pbrMetallicRoughness":{
			"baseColorFactor":[0.9591836734693877,
			0.0,
			0.2078231292517008,
			1.0],
			"metallicFactor":0.0,
			"roughnessFactor":0.65
		},
		"name":"Fabric 01",
		"emissiveFactor":[0.0,
		0.0,
		0.0],
		"alphaMode":"OPAQUE",
		"doubleSided":false
	}],
	"meshes":[{
		"name":"Cube",
		"primitives":[{
			"attributes":{
				"POSITION":1,
				"NORMAL":2,
				"TEXCOORD_0":3
			},
			"indices":0,
			"material":0
		}]
	}],
	"cameras":[{
		"type":"perspective",
		"perspective":{
			"znear":0.009999999776482582,
			"zfar":10000000000.0,
			"aspectRatio":1.600000023841858,
			"yfov":0.6057697534561157
		}
	},
	{
		"type":"perspective",
		"perspective":{
			"znear":0.009999999776482582,
			"zfar":10000000000.0,
			"aspectRatio":1.600000023841858,
			"yfov":0.6057697534561157
		}
	},
	{
		"type":"perspective",
		"perspective":{
			"znear":0.009999999776482582,
			"zfar":10000000000.0,
			"aspectRatio":1.600000023841858,
			"yfov":0.6057697534561157
		}
	},
	{
		"type":"perspective",
		"perspective":{
			"znear":0.009999999776482582,
			"zfar":10000000000.0,
			"aspectRatio":1.600000023841858,
			"yfov":0.6057697534561157
		}
	},
	{
		"type":"perspective",
		"perspective":{
			"znear":0.009999999776482582,
			"zfar":10000000000.0,
			"aspectRatio":1.600000023841858,
			"yfov":0.6057697534561157
		}
	},
	{
		"type":"perspective",
		"perspective":{
			"znear":0.009999999776482582,
			"zfar":10000000000.0,
			"aspectRatio":1.600000023841858,
			"yfov":0.6057697534561157
		}
	},
	{
		"type":"perspective",
		"perspective":{
			"znear":0.009999999776482582,
			"zfar":10000000000.0,
			"aspectRatio":1.600000023841858,
			"yfov":0.6057697534561157
		}
	}],
	"bufferViews":[{
		"buffer":0,
		"byteOffset":0,
		"byteLength":61692,
		"target":34963
	},
	{
		"buffer":0,
		"byteOffset":61692,
		"byteLength":176960,
		"target":34962,
		"byteStride":32
	}],
	"accessors":[{
		"bufferView":0,
		"type":"SCALAR",
		"componentType":5123,
		"count":30846,
		"byteOffset":0,
		"min":[0],
		"max":[5529]
	},
	{
		"bufferView":1,
		"type":"VEC3",
		"componentType":5126,
		"count":5530,
		"byteOffset":0,
		"min":[-89.22762298583985,
		-293.7921447753906,
		-70.63162231445313],
		"max":[89.1292724609375,
		285.56353759765627,
		63.82673645019531]
	},
	{
		"bufferView":1,
		"type":"VEC3",
		"componentType":5126,
		"count":5530,
		"byteOffset":12,
		"min":[-0.9999925494194031,
		-0.9946017265319824,
		-0.9999946355819702],
		"max":[0.9999638199806213,
		0.9996103644371033,
		0.9999843239784241]
	},
	{
		"bufferView":1,
		"type":"VEC2",
		"componentType":5126,
		"count":5530,
		"byteOffset":24,
		"min":[0.0,
		0.0],
		"max":[1.0,
		1.0]
	}],
	"buffers":[{
		"uri":"data:application/octet-stream;base64,",
		"byteLength":238652
	}]
}